<?xml version="1.0" encoding="UTF-8"?>
<svg id="Layer_1" data-name="Layer 1" xmlns="http://www.w3.org/2000/svg" version="1.1" viewBox="0 0 1192 1028">
  <defs>
    <style>
      .cls-1 {
        fill: #000;
        fill-rule: evenodd;
        stroke-width: 0px;
      }
    </style>
  </defs>
  <path class="cls-1" d="M9,276v699.9c0,24.8,20.4,44.8,44.8,44.8s45.2-20.1,45.2-44.8v-315.8c0-24.8,20.1-44.8,44.8-44.8s44.8,20.1,44.8,44.8v58.5c0,24.8,20.1,45.2,44.8,45.2s44.8-20.4,44.8-45.2v-115.1c0-24.8,20.4-45.2,45.2-45.2s44.8,20.4,44.8,45.2v118.1c0,24.8,20.1,45.2,44.8,45.2s44.8-20.4,44.8-45.2v-165.9c1.7-134.2,276.7-134.2,278.4,0v62.2c0,24.8,20.4,45.2,44.8,45.2s45.2-20.4,45.2-45.2v-14.4c0-24.8,20.1-45.2,44.8-45.2s44.8,20.4,44.8,45.2v199.1c0,24.8,20.4,44.8,44.8,44.8s45.2-20.1,45.2-44.8v-176c0-24.8,20.1-44.8,44.8-44.8s44.8,20.1,44.8,44.8v111.7c0,24.4,20.1,44.8,44.8,44.8s44.8-20.4,44.8-44.8v-462.4c0-206.8-226.8-338.2-406.1-234.9-115.8,66.9-240.9,73.6-360,2.3C241.5-63.3,9,63.5,9,276h0ZM914.6,457.3c-100.4,0-181.3-81.3-181.3-181.3s81-181,181.3-181,181,81,181,181-81,181.3-181,181.3h0ZM280,457.3c-100,0-181.3-81.3-181.3-181.3s81.3-181,181.3-181,181,81,181,181-81,181.3-181,181.3h0Z"/>
  <polygon class="cls-1" points="233.8 321.8 233.8 406.8 325.8 406.8 325.8 321.8 410.8 321.8 410.8 230.1 325.8 230.1 325.8 145.1 233.8 145.1 233.8 230.1 149.2 230.1 149.2 321.8 233.8 321.8"/>
  <path class="cls-1" d="M868.5,191c0,25.4,20.7,45.8,46.2,45.8s45.8-20.4,45.8-45.8-20.7-45.8-45.8-45.8-46.2,20.4-46.2,45.8h0Z"/>
  <path class="cls-1" d="M783.5,276c0,25.4,20.7,45.8,46.2,45.8s45.8-20.4,45.8-45.8-20.7-45.8-45.8-45.8-46.2,20.4-46.2,45.8h0Z"/>
  <path class="cls-1" d="M953.5,276c0,25.4,20.7,45.8,45.8,45.8s46.2-20.4,46.2-45.8-20.7-45.8-46.2-45.8-45.8,20.4-45.8,45.8h0Z"/>
  <path class="cls-1" d="M868.5,360.9c0,25.4,20.7,45.8,45.8,45.8s46.2-20.4,46.2-45.8-20.7-45.8-46.2-45.8-45.8,20.4-45.8,45.8h0Z"/>
  <path class="cls-1" d="M188.7,903.9c0,24.8,20.1,44.8,44.8,44.8s44.8-20.1,44.8-44.8v-32.8c0-24.4-20.1-44.8-44.8-44.8s-44.8,20.4-44.8,44.8v32.8Z"/>
  <path class="cls-1" d="M736.3,771.1c0,24.8,20.1,44.8,44.8,44.8s45.2-20.1,45.2-44.8-20.1-44.8-45.2-44.8-44.8,20.1-44.8,44.8h0Z"/>
  <path class="cls-1" d="M1095.6,975.8c0,24.8,20.1,44.8,44.8,44.8s44.8-20.1,44.8-44.8v-83.6c0-24.8-20.1-44.8-44.8-44.8s-44.8,20.1-44.8,44.8v83.6Z"/>
</svg>