<?xml version="1.0" encoding="UTF-8"?>
<svg id="Layer_1" data-name="Layer 1" xmlns="http://www.w3.org/2000/svg" version="1.1" viewBox="0 0 600.8 870.2">
  <defs>
    <style>
      .cls-1 {
        fill: #fff;
      }

      .cls-1, .cls-2 {
        fill-rule: evenodd;
        stroke-width: 0px;
      }

      .cls-2 {
        fill: #fff;
      }
    </style>
  </defs>
  <g>
    <path class="cls-2" d="M6.3,138v349.2c0,12.4,10.2,22.4,22.4,22.4s22.5-10,22.5-22.4v-157.6c0-12.4,10-22.4,22.4-22.4s22.4,10,22.4,22.4v29.2c0,12.4,10,22.5,22.4,22.5s22.4-10.2,22.4-22.5v-57.4c0-12.4,10.2-22.5,22.5-22.5s22.4,10.2,22.4,22.5v58.9c0,12.4,10,22.5,22.4,22.5s22.4-10.2,22.4-22.5v-82.8c.8-66.9,138.1-66.9,138.9,0v31.1c0,12.4,10.2,22.5,22.4,22.5s22.5-10.2,22.5-22.5v-7.2c0-12.4,10-22.5,22.4-22.5s22.4,10.2,22.4,22.5v99.3c0,12.4,10.2,22.4,22.4,22.4s22.5-10,22.5-22.4v-87.8c0-12.4,10-22.4,22.4-22.4s22.4,10,22.4,22.4v55.8c0,12.2,10,22.4,22.4,22.4s22.4-10.2,22.4-22.4v-230.7c0-103.2-113.2-168.8-202.7-117.2-57.8,33.4-120.2,36.7-179.6,1.2C122.3-31.3,6.3,32,6.3,138h0ZM458.2,228.5c-50.1,0-90.5-40.6-90.5-90.5s40.4-90.3,90.5-90.3,90.3,40.4,90.3,90.3-40.4,90.5-90.3,90.5h0ZM141.5,228.5c-49.9,0-90.5-40.6-90.5-90.5s40.6-90.3,90.5-90.3,90.3,40.4,90.3,90.3-40.4,90.5-90.3,90.5h0Z"/>
    <polygon class="cls-2" points="118.5 160.9 118.5 203.3 164.4 203.3 164.4 160.9 206.8 160.9 206.8 115.1 164.4 115.1 164.4 72.7 118.5 72.7 118.5 115.1 76.3 115.1 76.3 160.9 118.5 160.9"/>
    <path class="cls-2" d="M435.2,95.6c0,12.7,10.4,22.9,23,22.9s22.9-10.2,22.9-22.9-10.4-22.9-22.9-22.9-23,10.2-23,22.9h0Z"/>
    <path class="cls-2" d="M392.8,138c0,12.7,10.4,22.9,23,22.9s22.9-10.2,22.9-22.9-10.4-22.9-22.9-22.9-23,10.2-23,22.9h0Z"/>
    <path class="cls-2" d="M477.6,138c0,12.7,10.4,22.9,22.9,22.9s23-10.2,23-22.9-10.3-22.9-23-22.9-22.9,10.2-22.9,22.9h0Z"/>
    <path class="cls-2" d="M435.2,180.4c0,12.7,10.4,22.9,22.9,22.9s23-10.2,23-22.9-10.4-22.9-23-22.9-22.9,10.2-22.9,22.9h0Z"/>
    <path class="cls-2" d="M96,451.3c0,12.4,10,22.4,22.4,22.4s22.4-10,22.4-22.4v-16.4c0-12.2-10-22.4-22.4-22.4s-22.4,10.2-22.4,22.4v16.4Z"/>
    <path class="cls-2" d="M369.2,385.1c0,12.4,10,22.4,22.4,22.4s22.5-10,22.5-22.4-10-22.4-22.5-22.4-22.4,10-22.4,22.4h0Z"/>
    <path class="cls-2" d="M548.5,487.2c0,12.4,10,22.4,22.4,22.4s22.4-10,22.4-22.4v-41.7c0-12.4-10-22.4-22.4-22.4s-22.4,10-22.4,22.4v41.7Z"/>
  </g>
  <polygon class="cls-1" points="431.8 867.6 485.8 763.3 516.4 826.8 597.4 670.5 571.1 616 519.1 616 545.1 669.8 518 722.1 466.8 616 414.8 616 460.4 710.6 433.3 762.9 362.5 616 310.5 616 431.8 867.6"/>
  <path class="cls-1" d="M302.9,674.2H127.3c-5.6,0-11.2.8-16.9,2.3-36,9.7-57.4,46.7-47.7,82.7,9.7,36,46.7,57.4,82.7,47.7,5.6-1.5,10.9-3.7,15.8-6.4l75.7-43.7H90c-9.3-23.3,4.7-50.3,29.1-56.8,3.6-1,7.3-1.5,10.9-1.5h172.9v87.5l-113.3,65.4c-18.7,10.8-40,16.1-61.6,16.1-69.4,0-125.8-56.4-125.8-125.8s56.4-125.8,125.8-125.8h141.3l33.7,58.3Z"/>
</svg>